<mxfile host="app.diagrams.net" agent="Mozilla/5.0 (Windows NT 10.0; Win64; x64) AppleWebKit/537.36 (KHTML, like Gecko) Chrome/136.0.0.0 Safari/537.36 Edg/136.0.0.0" version="27.0.6">
  <diagram name="Página-1" id="SFXhErV-rdTAxzYZ_2gD">
    <mxGraphModel dx="2196" dy="1289" grid="1" gridSize="10" guides="1" tooltips="1" connect="1" arrows="1" fold="1" page="1" pageScale="1" pageWidth="827" pageHeight="1169" math="0" shadow="0">
      <root>
        <mxCell id="0" />
        <mxCell id="1" parent="0" />
        <mxCell id="49foxzXQiOS-zXwnPIbX-1" value="Usuario" style="shape=umlActor;verticalLabelPosition=bottom;verticalAlign=top;html=1;outlineConnect=0;" parent="1" vertex="1">
          <mxGeometry x="30" y="30" width="30" height="60" as="geometry" />
        </mxCell>
        <mxCell id="49foxzXQiOS-zXwnPIbX-3" value="API Gateway&lt;span style=&quot;color: rgba(0, 0, 0, 0); font-family: monospace; font-size: 0px; text-align: start; text-wrap-mode: nowrap;&quot;&gt;%3CmxGraphModel%3E%3Croot%3E%3CmxCell%20id%3D%220%22%2F%3E%3CmxCell%20id%3D%221%22%20parent%3D%220%22%2F%3E%3CmxCell%20id%3D%222%22%20value%3D%22Frontend%20web%2FApp%22%20style%3D%22rounded%3D1%3BwhiteSpace%3Dwrap%3Bhtml%3D1%3B%22%20vertex%3D%221%22%20parent%3D%221%22%3E%3CmxGeometry%20x%3D%22120%22%20y%3D%2260%22%20width%3D%22120%22%20height%3D%2230%22%20as%3D%22geometry%22%2F%3E%3C%2FmxCell%3E%3C%2Froot%3E%3C%2FmxGraphModel%3E&lt;/span&gt;" style="rounded=1;whiteSpace=wrap;html=1;" parent="1" vertex="1">
          <mxGeometry x="240" y="60" width="120" height="30" as="geometry" />
        </mxCell>
        <mxCell id="49foxzXQiOS-zXwnPIbX-4" value="Auth Service" style="rounded=1;whiteSpace=wrap;html=1;" parent="1" vertex="1">
          <mxGeometry x="414" y="60" width="90" height="30" as="geometry" />
        </mxCell>
        <mxCell id="49foxzXQiOS-zXwnPIbX-5" value="Purchase Service" style="rounded=1;whiteSpace=wrap;html=1;" parent="1" vertex="1">
          <mxGeometry x="520" y="60" width="100" height="30" as="geometry" />
        </mxCell>
        <mxCell id="49foxzXQiOS-zXwnPIbX-6" value="Catalog Service" style="rounded=1;whiteSpace=wrap;html=1;" parent="1" vertex="1">
          <mxGeometry x="830" y="60" width="110" height="30" as="geometry" />
        </mxCell>
        <mxCell id="49foxzXQiOS-zXwnPIbX-7" value="Redis Cache" style="rounded=1;whiteSpace=wrap;html=1;" parent="1" vertex="1">
          <mxGeometry x="1015" y="60" width="120" height="30" as="geometry" />
        </mxCell>
        <mxCell id="49foxzXQiOS-zXwnPIbX-19" value="Payment Service" style="rounded=1;whiteSpace=wrap;html=1;" parent="1" vertex="1">
          <mxGeometry x="1810" y="60" width="130" height="30" as="geometry" />
        </mxCell>
        <mxCell id="UUgI_wtLY9CwamsXcvaH-1" value="AWS SNS/SQS" style="rounded=1;whiteSpace=wrap;html=1;" vertex="1" parent="1">
          <mxGeometry x="1340" y="60" width="120" height="30" as="geometry" />
        </mxCell>
        <mxCell id="UUgI_wtLY9CwamsXcvaH-2" value="Notification Service" style="rounded=1;whiteSpace=wrap;html=1;" vertex="1" parent="1">
          <mxGeometry x="1495" y="60" width="120" height="30" as="geometry" />
        </mxCell>
        <mxCell id="UUgI_wtLY9CwamsXcvaH-3" value="Commission Service" style="rounded=1;whiteSpace=wrap;html=1;" vertex="1" parent="1">
          <mxGeometry x="1650" y="60" width="120" height="30" as="geometry" />
        </mxCell>
        <mxCell id="UUgI_wtLY9CwamsXcvaH-4" value="" style="endArrow=none;html=1;rounded=0;dashed=1;" edge="1" parent="1">
          <mxGeometry width="50" height="50" relative="1" as="geometry">
            <mxPoint x="50" y="120" as="sourcePoint" />
            <mxPoint x="50" y="960" as="targetPoint" />
          </mxGeometry>
        </mxCell>
        <mxCell id="UUgI_wtLY9CwamsXcvaH-5" value="" style="endArrow=none;html=1;rounded=0;dashed=1;" edge="1" parent="1">
          <mxGeometry width="50" height="50" relative="1" as="geometry">
            <mxPoint x="299.44" y="93" as="sourcePoint" />
            <mxPoint x="300" y="980" as="targetPoint" />
          </mxGeometry>
        </mxCell>
        <mxCell id="UUgI_wtLY9CwamsXcvaH-6" value="" style="endArrow=none;html=1;rounded=0;dashed=1;entryX=0.5;entryY=0;entryDx=0;entryDy=0;" edge="1" parent="1" target="UUgI_wtLY9CwamsXcvaH-52">
          <mxGeometry width="50" height="50" relative="1" as="geometry">
            <mxPoint x="458.44000000000005" y="90" as="sourcePoint" />
            <mxPoint x="458" y="980" as="targetPoint" />
          </mxGeometry>
        </mxCell>
        <mxCell id="UUgI_wtLY9CwamsXcvaH-7" value="" style="endArrow=none;html=1;rounded=0;dashed=1;entryX=0.5;entryY=0;entryDx=0;entryDy=0;" edge="1" parent="1" target="UUgI_wtLY9CwamsXcvaH-53">
          <mxGeometry width="50" height="50" relative="1" as="geometry">
            <mxPoint x="569.44" y="93" as="sourcePoint" />
            <mxPoint x="569" y="960" as="targetPoint" />
          </mxGeometry>
        </mxCell>
        <mxCell id="UUgI_wtLY9CwamsXcvaH-8" value="" style="endArrow=none;html=1;rounded=0;dashed=1;entryX=0.5;entryY=0;entryDx=0;entryDy=0;" edge="1" parent="1" target="UUgI_wtLY9CwamsXcvaH-54">
          <mxGeometry width="50" height="50" relative="1" as="geometry">
            <mxPoint x="880" y="93" as="sourcePoint" />
            <mxPoint x="880" y="960" as="targetPoint" />
          </mxGeometry>
        </mxCell>
        <mxCell id="UUgI_wtLY9CwamsXcvaH-9" value="" style="endArrow=none;html=1;rounded=0;dashed=1;entryX=0.5;entryY=0;entryDx=0;entryDy=0;" edge="1" parent="1" target="UUgI_wtLY9CwamsXcvaH-55">
          <mxGeometry width="50" height="50" relative="1" as="geometry">
            <mxPoint x="1071.44" y="90" as="sourcePoint" />
            <mxPoint x="1071" y="960" as="targetPoint" />
          </mxGeometry>
        </mxCell>
        <mxCell id="UUgI_wtLY9CwamsXcvaH-10" value="" style="endArrow=none;html=1;rounded=0;dashed=1;entryX=0.5;entryY=0;entryDx=0;entryDy=0;" edge="1" parent="1" target="UUgI_wtLY9CwamsXcvaH-57">
          <mxGeometry width="50" height="50" relative="1" as="geometry">
            <mxPoint x="1399.44" y="93" as="sourcePoint" />
            <mxPoint x="1399" y="980" as="targetPoint" />
          </mxGeometry>
        </mxCell>
        <mxCell id="UUgI_wtLY9CwamsXcvaH-11" value="" style="endArrow=none;html=1;rounded=0;dashed=1;entryX=0.5;entryY=0;entryDx=0;entryDy=0;" edge="1" parent="1" target="UUgI_wtLY9CwamsXcvaH-58">
          <mxGeometry width="50" height="50" relative="1" as="geometry">
            <mxPoint x="1554.44" y="93" as="sourcePoint" />
            <mxPoint x="1554" y="960" as="targetPoint" />
          </mxGeometry>
        </mxCell>
        <mxCell id="UUgI_wtLY9CwamsXcvaH-12" value="" style="endArrow=none;html=1;rounded=0;dashed=1;entryX=0.5;entryY=0;entryDx=0;entryDy=0;" edge="1" parent="1" target="UUgI_wtLY9CwamsXcvaH-59">
          <mxGeometry width="50" height="50" relative="1" as="geometry">
            <mxPoint x="1709.44" y="90" as="sourcePoint" />
            <mxPoint x="1710" y="960" as="targetPoint" />
          </mxGeometry>
        </mxCell>
        <mxCell id="UUgI_wtLY9CwamsXcvaH-13" value="" style="endArrow=none;html=1;rounded=0;dashed=1;entryX=0.5;entryY=0;entryDx=0;entryDy=0;" edge="1" parent="1" target="UUgI_wtLY9CwamsXcvaH-56">
          <mxGeometry width="50" height="50" relative="1" as="geometry">
            <mxPoint x="1874.44" y="93" as="sourcePoint" />
            <mxPoint x="1874" y="960" as="targetPoint" />
          </mxGeometry>
        </mxCell>
        <mxCell id="UUgI_wtLY9CwamsXcvaH-14" value="" style="endArrow=classic;html=1;rounded=0;" edge="1" parent="1">
          <mxGeometry width="50" height="50" relative="1" as="geometry">
            <mxPoint x="50" y="150" as="sourcePoint" />
            <mxPoint x="300" y="150" as="targetPoint" />
          </mxGeometry>
        </mxCell>
        <mxCell id="UUgI_wtLY9CwamsXcvaH-15" value="Solicitud de compra (con JWT)" style="text;html=1;align=center;verticalAlign=middle;resizable=0;points=[];autosize=1;strokeColor=none;fillColor=none;" vertex="1" parent="1">
          <mxGeometry x="55" y="120" width="190" height="30" as="geometry" />
        </mxCell>
        <mxCell id="UUgI_wtLY9CwamsXcvaH-16" value="Verifica autenticidad JWT" style="text;html=1;align=center;verticalAlign=middle;resizable=0;points=[];autosize=1;strokeColor=none;fillColor=none;" vertex="1" parent="1">
          <mxGeometry x="300" y="150" width="160" height="30" as="geometry" />
        </mxCell>
        <mxCell id="UUgI_wtLY9CwamsXcvaH-17" value="" style="endArrow=classic;html=1;rounded=0;" edge="1" parent="1">
          <mxGeometry width="50" height="50" relative="1" as="geometry">
            <mxPoint x="300" y="180" as="sourcePoint" />
            <mxPoint x="460" y="180" as="targetPoint" />
          </mxGeometry>
        </mxCell>
        <mxCell id="UUgI_wtLY9CwamsXcvaH-18" value="" style="endArrow=classic;html=1;rounded=0;dashed=1;" edge="1" parent="1">
          <mxGeometry width="50" height="50" relative="1" as="geometry">
            <mxPoint x="460" y="220" as="sourcePoint" />
            <mxPoint x="300" y="220" as="targetPoint" />
          </mxGeometry>
        </mxCell>
        <mxCell id="UUgI_wtLY9CwamsXcvaH-19" value="JWT válido" style="text;html=1;align=center;verticalAlign=middle;resizable=0;points=[];autosize=1;strokeColor=none;fillColor=none;" vertex="1" parent="1">
          <mxGeometry x="310" y="188" width="80" height="30" as="geometry" />
        </mxCell>
        <mxCell id="UUgI_wtLY9CwamsXcvaH-20" value="" style="endArrow=classic;html=1;rounded=0;" edge="1" parent="1">
          <mxGeometry width="50" height="50" relative="1" as="geometry">
            <mxPoint x="300" y="270" as="sourcePoint" />
            <mxPoint x="570" y="269" as="targetPoint" />
          </mxGeometry>
        </mxCell>
        <mxCell id="UUgI_wtLY9CwamsXcvaH-21" value="Reenvía solicitud con autenticación" style="text;html=1;align=center;verticalAlign=middle;resizable=0;points=[];autosize=1;strokeColor=none;fillColor=none;" vertex="1" parent="1">
          <mxGeometry x="330" y="238" width="210" height="30" as="geometry" />
        </mxCell>
        <mxCell id="UUgI_wtLY9CwamsXcvaH-22" value="" style="endArrow=classic;html=1;rounded=0;" edge="1" parent="1">
          <mxGeometry width="50" height="50" relative="1" as="geometry">
            <mxPoint x="570" y="301" as="sourcePoint" />
            <mxPoint x="880" y="300" as="targetPoint" />
          </mxGeometry>
        </mxCell>
        <mxCell id="UUgI_wtLY9CwamsXcvaH-23" value="Consulta disponibilidad" style="text;html=1;align=center;verticalAlign=middle;resizable=0;points=[];autosize=1;strokeColor=none;fillColor=none;" vertex="1" parent="1">
          <mxGeometry x="570" y="268" width="150" height="30" as="geometry" />
        </mxCell>
        <mxCell id="UUgI_wtLY9CwamsXcvaH-25" value="" style="endArrow=classic;html=1;rounded=0;" edge="1" parent="1">
          <mxGeometry width="50" height="50" relative="1" as="geometry">
            <mxPoint x="881" y="340" as="sourcePoint" />
            <mxPoint x="1070" y="340" as="targetPoint" />
          </mxGeometry>
        </mxCell>
        <mxCell id="UUgI_wtLY9CwamsXcvaH-26" value="Consulta rápida (cacheo Redis)&amp;nbsp;" style="text;html=1;align=center;verticalAlign=middle;resizable=0;points=[];autosize=1;strokeColor=none;fillColor=none;" vertex="1" parent="1">
          <mxGeometry x="880" y="310" width="190" height="30" as="geometry" />
        </mxCell>
        <mxCell id="UUgI_wtLY9CwamsXcvaH-27" value="" style="endArrow=classic;html=1;rounded=0;dashed=1;" edge="1" parent="1">
          <mxGeometry width="50" height="50" relative="1" as="geometry">
            <mxPoint x="1070" y="390" as="sourcePoint" />
            <mxPoint x="880" y="390" as="targetPoint" />
          </mxGeometry>
        </mxCell>
        <mxCell id="UUgI_wtLY9CwamsXcvaH-28" value="Respuesta disponibilidad" style="text;html=1;align=center;verticalAlign=middle;resizable=0;points=[];autosize=1;strokeColor=none;fillColor=none;" vertex="1" parent="1">
          <mxGeometry x="895" y="358" width="160" height="30" as="geometry" />
        </mxCell>
        <mxCell id="UUgI_wtLY9CwamsXcvaH-29" value="" style="endArrow=classic;html=1;rounded=0;dashed=1;" edge="1" parent="1">
          <mxGeometry width="50" height="50" relative="1" as="geometry">
            <mxPoint x="880" y="430" as="sourcePoint" />
            <mxPoint x="570" y="430" as="targetPoint" />
          </mxGeometry>
        </mxCell>
        <mxCell id="UUgI_wtLY9CwamsXcvaH-30" value="Tiquete disponible" style="text;html=1;align=center;verticalAlign=middle;resizable=0;points=[];autosize=1;strokeColor=none;fillColor=none;" vertex="1" parent="1">
          <mxGeometry x="575" y="398" width="120" height="30" as="geometry" />
        </mxCell>
        <mxCell id="UUgI_wtLY9CwamsXcvaH-31" value="" style="endArrow=none;html=1;rounded=0;" edge="1" parent="1">
          <mxGeometry width="50" height="50" relative="1" as="geometry">
            <mxPoint x="570" y="470" as="sourcePoint" />
            <mxPoint x="700" y="470" as="targetPoint" />
          </mxGeometry>
        </mxCell>
        <mxCell id="UUgI_wtLY9CwamsXcvaH-32" value="" style="endArrow=none;html=1;rounded=0;" edge="1" parent="1">
          <mxGeometry width="50" height="50" relative="1" as="geometry">
            <mxPoint x="700" y="490" as="sourcePoint" />
            <mxPoint x="700" y="470" as="targetPoint" />
          </mxGeometry>
        </mxCell>
        <mxCell id="UUgI_wtLY9CwamsXcvaH-33" value="" style="endArrow=classic;html=1;rounded=0;" edge="1" parent="1">
          <mxGeometry width="50" height="50" relative="1" as="geometry">
            <mxPoint x="700" y="490" as="sourcePoint" />
            <mxPoint x="570" y="490" as="targetPoint" />
          </mxGeometry>
        </mxCell>
        <mxCell id="UUgI_wtLY9CwamsXcvaH-34" value="Verifica y bloquea stock (prevención doble compra)" style="text;html=1;align=center;verticalAlign=middle;resizable=0;points=[];autosize=1;strokeColor=none;fillColor=none;" vertex="1" parent="1">
          <mxGeometry x="570" y="440" width="300" height="30" as="geometry" />
        </mxCell>
        <mxCell id="UUgI_wtLY9CwamsXcvaH-35" value="" style="endArrow=classic;html=1;rounded=0;" edge="1" parent="1">
          <mxGeometry width="50" height="50" relative="1" as="geometry">
            <mxPoint x="570" y="541" as="sourcePoint" />
            <mxPoint x="1400" y="540" as="targetPoint" />
          </mxGeometry>
        </mxCell>
        <mxCell id="UUgI_wtLY9CwamsXcvaH-36" value="" style="endArrow=classic;html=1;rounded=0;" edge="1" parent="1">
          <mxGeometry width="50" height="50" relative="1" as="geometry">
            <mxPoint x="570" y="601" as="sourcePoint" />
            <mxPoint x="1870" y="600" as="targetPoint" />
          </mxGeometry>
        </mxCell>
        <mxCell id="UUgI_wtLY9CwamsXcvaH-37" value="" style="endArrow=classic;html=1;rounded=0;dashed=1;" edge="1" parent="1">
          <mxGeometry width="50" height="50" relative="1" as="geometry">
            <mxPoint x="1870" y="660" as="sourcePoint" />
            <mxPoint x="570" y="660" as="targetPoint" />
          </mxGeometry>
        </mxCell>
        <mxCell id="UUgI_wtLY9CwamsXcvaH-38" value="" style="endArrow=classic;html=1;rounded=0;" edge="1" parent="1">
          <mxGeometry width="50" height="50" relative="1" as="geometry">
            <mxPoint x="570" y="721" as="sourcePoint" />
            <mxPoint x="1400" y="720" as="targetPoint" />
          </mxGeometry>
        </mxCell>
        <mxCell id="UUgI_wtLY9CwamsXcvaH-39" value="Emite evento &quot;CompraIniciada&quot;" style="text;html=1;align=center;verticalAlign=middle;resizable=0;points=[];autosize=1;strokeColor=none;fillColor=none;" vertex="1" parent="1">
          <mxGeometry x="570" y="510" width="190" height="30" as="geometry" />
        </mxCell>
        <mxCell id="UUgI_wtLY9CwamsXcvaH-40" value="Solicita procesamiento del pago" style="text;html=1;align=center;verticalAlign=middle;resizable=0;points=[];autosize=1;strokeColor=none;fillColor=none;" vertex="1" parent="1">
          <mxGeometry x="575" y="568" width="190" height="30" as="geometry" />
        </mxCell>
        <mxCell id="UUgI_wtLY9CwamsXcvaH-41" value="Pago exitoso" style="text;html=1;align=center;verticalAlign=middle;resizable=0;points=[];autosize=1;strokeColor=none;fillColor=none;" vertex="1" parent="1">
          <mxGeometry x="590" y="628" width="90" height="30" as="geometry" />
        </mxCell>
        <mxCell id="UUgI_wtLY9CwamsXcvaH-42" value="Emite evento &quot;CompraCompletada&quot;" style="text;html=1;align=center;verticalAlign=middle;resizable=0;points=[];autosize=1;strokeColor=none;fillColor=none;" vertex="1" parent="1">
          <mxGeometry x="590" y="688" width="210" height="30" as="geometry" />
        </mxCell>
        <mxCell id="UUgI_wtLY9CwamsXcvaH-43" value="" style="endArrow=classic;html=1;rounded=0;" edge="1" parent="1">
          <mxGeometry width="50" height="50" relative="1" as="geometry">
            <mxPoint x="1400" y="758" as="sourcePoint" />
            <mxPoint x="1560" y="758" as="targetPoint" />
          </mxGeometry>
        </mxCell>
        <mxCell id="UUgI_wtLY9CwamsXcvaH-44" value="" style="endArrow=classic;html=1;rounded=0;" edge="1" parent="1">
          <mxGeometry width="50" height="50" relative="1" as="geometry">
            <mxPoint x="1400" y="810" as="sourcePoint" />
            <mxPoint x="1710" y="810" as="targetPoint" />
          </mxGeometry>
        </mxCell>
        <mxCell id="UUgI_wtLY9CwamsXcvaH-45" value="Notifica usuario final" style="text;html=1;align=center;verticalAlign=middle;resizable=0;points=[];autosize=1;strokeColor=none;fillColor=none;" vertex="1" parent="1">
          <mxGeometry x="1400" y="728" width="130" height="30" as="geometry" />
        </mxCell>
        <mxCell id="UUgI_wtLY9CwamsXcvaH-46" value="Calcula comisión" style="text;html=1;align=center;verticalAlign=middle;resizable=0;points=[];autosize=1;strokeColor=none;fillColor=none;" vertex="1" parent="1">
          <mxGeometry x="1400" y="780" width="110" height="30" as="geometry" />
        </mxCell>
        <mxCell id="UUgI_wtLY9CwamsXcvaH-47" value="" style="endArrow=classic;html=1;rounded=0;" edge="1" parent="1">
          <mxGeometry width="50" height="50" relative="1" as="geometry">
            <mxPoint x="1400" y="840" as="sourcePoint" />
            <mxPoint x="1070" y="840" as="targetPoint" />
          </mxGeometry>
        </mxCell>
        <mxCell id="UUgI_wtLY9CwamsXcvaH-48" value="Actualiza estado del tiquete" style="text;html=1;align=center;verticalAlign=middle;resizable=0;points=[];autosize=1;strokeColor=none;fillColor=none;" vertex="1" parent="1">
          <mxGeometry x="1080" y="810" width="170" height="30" as="geometry" />
        </mxCell>
        <mxCell id="UUgI_wtLY9CwamsXcvaH-49" value="" style="endArrow=classic;html=1;rounded=0;" edge="1" parent="1">
          <mxGeometry width="50" height="50" relative="1" as="geometry">
            <mxPoint x="1553" y="910" as="sourcePoint" />
            <mxPoint x="50" y="910" as="targetPoint" />
          </mxGeometry>
        </mxCell>
        <mxCell id="UUgI_wtLY9CwamsXcvaH-50" value="Usuario" style="shape=umlActor;verticalLabelPosition=bottom;verticalAlign=top;html=1;outlineConnect=0;" vertex="1" parent="1">
          <mxGeometry x="35" y="960" width="30" height="60" as="geometry" />
        </mxCell>
        <mxCell id="UUgI_wtLY9CwamsXcvaH-51" value="API Gateway&lt;span style=&quot;color: rgba(0, 0, 0, 0); font-family: monospace; font-size: 0px; text-align: start; text-wrap-mode: nowrap;&quot;&gt;%3CmxGraphModel%3E%3Croot%3E%3CmxCell%20id%3D%220%22%2F%3E%3CmxCell%20id%3D%221%22%20parent%3D%220%22%2F%3E%3CmxCell%20id%3D%222%22%20value%3D%22Frontend%20web%2FApp%22%20style%3D%22rounded%3D1%3BwhiteSpace%3Dwrap%3Bhtml%3D1%3B%22%20vertex%3D%221%22%20parent%3D%221%22%3E%3CmxGeometry%20x%3D%22120%22%20y%3D%2260%22%20width%3D%22120%22%20height%3D%2230%22%20as%3D%22geometry%22%2F%3E%3C%2FmxCell%3E%3C%2Froot%3E%3C%2FmxGraphModel%3E&lt;/span&gt;" style="rounded=1;whiteSpace=wrap;html=1;" vertex="1" parent="1">
          <mxGeometry x="245" y="980" width="120" height="30" as="geometry" />
        </mxCell>
        <mxCell id="UUgI_wtLY9CwamsXcvaH-52" value="Auth Service" style="rounded=1;whiteSpace=wrap;html=1;" vertex="1" parent="1">
          <mxGeometry x="414" y="980" width="90" height="30" as="geometry" />
        </mxCell>
        <mxCell id="UUgI_wtLY9CwamsXcvaH-53" value="Purchase Service" style="rounded=1;whiteSpace=wrap;html=1;" vertex="1" parent="1">
          <mxGeometry x="520" y="980" width="100" height="30" as="geometry" />
        </mxCell>
        <mxCell id="UUgI_wtLY9CwamsXcvaH-54" value="Catalog Service" style="rounded=1;whiteSpace=wrap;html=1;" vertex="1" parent="1">
          <mxGeometry x="827" y="980" width="110" height="30" as="geometry" />
        </mxCell>
        <mxCell id="UUgI_wtLY9CwamsXcvaH-55" value="Redis Cache" style="rounded=1;whiteSpace=wrap;html=1;" vertex="1" parent="1">
          <mxGeometry x="1015" y="980" width="120" height="30" as="geometry" />
        </mxCell>
        <mxCell id="UUgI_wtLY9CwamsXcvaH-56" value="Payment Service" style="rounded=1;whiteSpace=wrap;html=1;" vertex="1" parent="1">
          <mxGeometry x="1810" y="975" width="130" height="30" as="geometry" />
        </mxCell>
        <mxCell id="UUgI_wtLY9CwamsXcvaH-57" value="AWS SNS/SQS" style="rounded=1;whiteSpace=wrap;html=1;" vertex="1" parent="1">
          <mxGeometry x="1340" y="975" width="120" height="30" as="geometry" />
        </mxCell>
        <mxCell id="UUgI_wtLY9CwamsXcvaH-58" value="Notification Service" style="rounded=1;whiteSpace=wrap;html=1;" vertex="1" parent="1">
          <mxGeometry x="1495" y="975" width="120" height="30" as="geometry" />
        </mxCell>
        <mxCell id="UUgI_wtLY9CwamsXcvaH-59" value="Commission Service" style="rounded=1;whiteSpace=wrap;html=1;" vertex="1" parent="1">
          <mxGeometry x="1650" y="975" width="120" height="30" as="geometry" />
        </mxCell>
      </root>
    </mxGraphModel>
  </diagram>
</mxfile>
